{"asset":{"version":"2.0","generator":"VECTARY"},"nodes":[{"translation":[0.203866126,0.549672986,-0.5508263951651466],"scale":[0.0016023049682723338,0.0016023049682723338,0.0016023049682723342],"rotation":[-0.4880565214196924,0.4032743064630074,0.6094409702706852,0.4772340823977427],"name":"3D Text 1","children":[1,2,3,4]},{"translation":[-43.1437765847744,0,0],"scale":[1,1,1],"rotation":[0,0,0,1],"name":"3D Text 1 - C","mesh":0},{"translation":[-16.561258984774398,0,0],"scale":[1,1,1],"rotation":[0,0,0,1],"name":"3D Text 1 - l","mesh":1},{"translation":[-3.028741384774399,0,0],"scale":[1,1,1],"rotation":[0,0,0,1],"name":"3D Text 1 - u","mesh":2},{"translation":[21.843776215225603,0,0],"scale":[1,1,1],"rotation":[0,0,0,1],"name":"3D Text 1 - b","mesh":3},{"translation":[0.024745388999999996,0.041503455,-0.023523881],"scale":[0.001,0.001,0.001],"rotation":[-0.16163906875981562,0.8379707786207558,0.3822641761434954,0.35433301464232597],"name":"Directional Light","extensions":{"KHR_lights_punctual":{"light":0}}},{"translation":[0.21871507299965362,0.5313402050007376,-0.4092062609999999],"scale":[0.0014975292831111509,0.0014975292831111509,0.0014975292831111509],"rotation":[-0.5118284665503577,0.4055810937837514,0.5884807231442618,0.47668232155335055],"name":"3D Text","children":[7,8,9,10]},{"translation":[-50.27574610710144,0,0],"scale":[1,1,1],"rotation":[0,0,0,1],"name":"3D Text - E","mesh":4},{"translation":[-25.07310938835144,0,0],"scale":[1,1,1],"rotation":[0,0,0,1],"name":"3D Text - s","mesh":5},{"translation":[-2.7049453258514404,0,0],"scale":[1,1,1],"rotation":[0,0,0,1],"name":"3D Text - t","mesh":6},{"translation":[16.82874608039856,0,0],"scale":[1,1,1],"rotation":[0,0,0,1],"name":"3D Text - u","mesh":7},{"translation":[0.00406929,-0.0014758289999999995,-0.004029961],"scale":[1,1,1],"rotation":[-0.7071067811865475,0,0,0.7071067811865476],"name":"Sketchfab_model","children":[12]},{"translation":[-0.004069,-0.00403,0.001477],"scale":[0.01,0.01,0.01],"rotation":[0.7071067811865475,0,0,0.7071067811865476],"name":"f50fc348b4554c20a511a35021c64c80.fbx","children":[13]},{"translation":[0,0,0],"scale":[1,1,1],"rotation":[0,0,0,1],"name":"RootNode","children":[14]},{"translation":[0,0,0],"scale":[1,1,1],"rotation":[0,0,0,1],"name":"geo_Vespa_Body","children":[15,17,19]},{"translation":[0,0,0],"scale":[1,1,1],"rotation":[0,0,0,1],"name":"geo_BackWheel","children":[16]},{"translation":[0,0,0],"scale":[1,1,1],"rotation":[0,0,0,1],"name":"geo_BackWheel_M_Vespa1_0","mesh":8},{"translation":[0,0,0],"scale":[1,1,1],"rotation":[0,0,0,1],"name":"geo_FrontWheel","children":[18]},{"translation":[0,0,0],"scale":[1,1,1],"rotation":[0,0,0,1],"name":"geo_FrontWheel_M_Vespa1_0","mesh":9},{"translation":[0,0,0],"scale":[1,1,1],"rotation":[0,0,0,1],"name":"geo_VespaBody","children":[20,21]},{"translation":[0,0,0],"scale":[1,1,1],"rotation":[0,0,0,1],"name":"geo_VespaBody_M_Vespa1_0","mesh":10},{"translation":[0,0,0],"scale":[1,1,1],"rotation":[0,0,0,1],"name":"geo_VespaBody_M_Vespa1_0","mesh":11}],"materials":[{"pbrMetallicRoughness":{"baseColorFactor":[0.8670237934377415,0.8670237934377415,0.8670237934377415,1],"metallicFactor":0,"roughnessFactor":0.2},"name":"Aria","emissiveFactor":[0,0,0],"extensions":{},"alphaMode":"OPAQUE","doubleSided":false},{"pbrMetallicRoughness":{"baseColorFactor":[0.8670237934377415,0.8670237934377415,0.8670237934377415,1],"metallicFactor":0,"roughnessFactor":0.2},"name":"Aria","emissiveFactor":[0,0,0],"extensions":{},"alphaMode":"OPAQUE","doubleSided":false},{"pbrMetallicRoughness":{"baseColorFactor":[0.8670237934377415,0.8670237934377415,0.8670237934377415,1],"metallicFactor":0,"roughnessFactor":0.2},"name":"Aria","emissiveFactor":[0,0,0],"extensions":{},"alphaMode":"OPAQUE","doubleSided":false},{"pbrMetallicRoughness":{"baseColorFactor":[0.8670237934377415,0.8670237934377415,0.8670237934377415,1],"metallicFactor":0,"roughnessFactor":0.2},"name":"Aria","emissiveFactor":[0,0,0],"extensions":{},"alphaMode":"OPAQUE","doubleSided":false},{"pbrMetallicRoughness":{"baseColorFactor":[0.8670237934377415,0.8670237934377415,0.8670237934377415,1],"metallicFactor":0,"roughnessFactor":0.2},"name":"Safari","emissiveFactor":[0,0,0],"extensions":{},"alphaMode":"OPAQUE","doubleSided":false},{"pbrMetallicRoughness":{"baseColorFactor":[0.8670237934377415,0.8670237934377415,0.8670237934377415,1],"metallicFactor":0,"roughnessFactor":0.2},"name":"Safari","emissiveFactor":[0,0,0],"extensions":{},"alphaMode":"OPAQUE","doubleSided":false},{"pbrMetallicRoughness":{"baseColorFactor":[0.8670237934377415,0.8670237934377415,0.8670237934377415,1],"metallicFactor":0,"roughnessFactor":0.2},"name":"Safari","emissiveFactor":[0,0,0],"extensions":{},"alphaMode":"OPAQUE","doubleSided":false},{"pbrMetallicRoughness":{"baseColorFactor":[0.8670237934377415,0.8670237934377415,0.8670237934377415,1],"metallicFactor":0,"roughnessFactor":0.2},"name":"Safari","emissiveFactor":[0,0,0],"extensions":{},"alphaMode":"OPAQUE","doubleSided":false},{"pbrMetallicRoughness":{"baseColorFactor":[0.4590798924241601,0.2271365255051489,0.2271365255051489,1],"baseColorTexture":{"index":0,"extensions":{"KHR_texture_transform":{"offset":[0,0],"scale":[1,1],"rotation":0}},"texCoord":0},"metallicRoughnessTexture":{"index":2,"extensions":{"KHR_texture_transform":{"offset":[0,0],"scale":[1,1],"rotation":0}},"texCoord":0},"metallicFactor":1,"roughnessFactor":1},"name":"M_Vespa1","normalTexture":{"index":1,"scale":1,"extensions":{"KHR_texture_transform":{"offset":[0,0],"scale":[1,1],"rotation":0}},"texCoord":0},"emissiveTexture":{"index":3,"extensions":{"KHR_texture_transform":{"offset":[0,0],"scale":[1,1],"rotation":0}},"texCoord":0},"emissiveFactor":[1,1,1],"extensions":{},"alphaMode":"OPAQUE","doubleSided":true},{"pbrMetallicRoughness":{"baseColorFactor":[0.4590798924241601,0.2271365255051489,0.2271365255051489,1],"baseColorTexture":{"index":0,"extensions":{"KHR_texture_transform":{"offset":[0,0],"scale":[1,1],"rotation":0}},"texCoord":0},"metallicRoughnessTexture":{"index":2,"extensions":{"KHR_texture_transform":{"offset":[0,0],"scale":[1,1],"rotation":0}},"texCoord":0},"metallicFactor":1,"roughnessFactor":1},"name":"M_Vespa1","normalTexture":{"index":1,"scale":1,"extensions":{"KHR_texture_transform":{"offset":[0,0],"scale":[1,1],"rotation":0}},"texCoord":0},"emissiveTexture":{"index":3,"extensions":{"KHR_texture_transform":{"offset":[0,0],"scale":[1,1],"rotation":0}},"texCoord":0},"emissiveFactor":[1,1,1],"extensions":{},"alphaMode":"OPAQUE","doubleSided":true},{"pbrMetallicRoughness":{"baseColorFactor":[0.4590798924241601,0.2271365255051489,0.2271365255051489,1],"baseColorTexture":{"index":0,"extensions":{"KHR_texture_transform":{"offset":[0,0],"scale":[1,1],"rotation":0}},"texCoord":0},"metallicRoughnessTexture":{"index":2,"extensions":{"KHR_texture_transform":{"offset":[0,0],"scale":[1,1],"rotation":0}},"texCoord":0},"metallicFactor":1,"roughnessFactor":1},"name":"M_Vespa1","normalTexture":{"index":1,"scale":1,"extensions":{"KHR_texture_transform":{"offset":[0,0],"scale":[1,1],"rotation":0}},"texCoord":0},"emissiveTexture":{"index":3,"extensions":{"KHR_texture_transform":{"offset":[0,0],"scale":[1,1],"rotation":0}},"texCoord":0},"emissiveFactor":[1,1,1],"extensions":{},"alphaMode":"OPAQUE","doubleSided":true},{"pbrMetallicRoughness":{"baseColorFactor":[0.4590798924241601,0.2271365255051489,0.2271365255051489,1],"baseColorTexture":{"index":0,"extensions":{"KHR_texture_transform":{"offset":[0,0],"scale":[1,1],"rotation":0}},"texCoord":0},"metallicRoughnessTexture":{"index":2,"extensions":{"KHR_texture_transform":{"offset":[0,0],"scale":[1,1],"rotation":0}},"texCoord":0},"metallicFactor":1,"roughnessFactor":1},"name":"M_Vespa1","normalTexture":{"index":1,"scale":1,"extensions":{"KHR_texture_transform":{"offset":[0,0],"scale":[1,1],"rotation":0}},"texCoord":0},"emissiveTexture":{"index":3,"extensions":{"KHR_texture_transform":{"offset":[0,0],"scale":[1,1],"rotation":0}},"texCoord":0},"emissiveFactor":[1,1,1],"extensions":{},"alphaMode":"OPAQUE","doubleSided":true}],"meshes":[{"primitives":[{"mode":4,"attributes":{"POSITION":1,"NORMAL":2,"TEXCOORD_0":3},"material":0,"indices":0}]},{"primitives":[{"mode":4,"attributes":{"POSITION":5,"NORMAL":6,"TEXCOORD_0":7},"material":1,"indices":4}]},{"primitives":[{"mode":4,"attributes":{"POSITION":9,"NORMAL":10,"TEXCOORD_0":11},"material":2,"indices":8}]},{"primitives":[{"mode":4,"attributes":{"POSITION":13,"NORMAL":14,"TEXCOORD_0":15},"material":3,"indices":12}]},{"primitives":[{"mode":4,"attributes":{"POSITION":17,"NORMAL":18,"TEXCOORD_0":19},"material":4,"indices":16}]},{"primitives":[{"mode":4,"attributes":{"POSITION":21,"NORMAL":22,"TEXCOORD_0":23},"material":5,"indices":20}]},{"primitives":[{"mode":4,"attributes":{"POSITION":25,"NORMAL":26,"TEXCOORD_0":27},"material":6,"indices":24}]},{"primitives":[{"mode":4,"attributes":{"POSITION":29,"NORMAL":30,"TEXCOORD_0":31},"material":7,"indices":28}]},{"primitives":[{"mode":4,"attributes":{"POSITION":33,"NORMAL":34,"TEXCOORD_0":35},"material":8,"indices":32}]},{"primitives":[{"mode":4,"attributes":{"POSITION":37,"NORMAL":38,"TEXCOORD_0":39},"material":9,"indices":36}]},{"primitives":[{"mode":4,"attributes":{"POSITION":41,"NORMAL":42,"TEXCOORD_0":43},"material":10,"indices":40}]},{"primitives":[{"mode":4,"attributes":{"POSITION":45,"NORMAL":46,"TEXCOORD_0":47},"material":11,"indices":44}]}],"accessors":[{"bufferView":0,"byteOffset":0,"componentType":5125,"count":1440,"type":"SCALAR"},{"bufferView":1,"byteOffset":0,"componentType":5126,"count":962,"max":[26.75,2.2962127228657366e-15,37.5],"min":[0.949999988079071,-15,-0.800000011920929],"type":"VEC3"},{"bufferView":2,"byteOffset":0,"componentType":5126,"count":962,"type":"VEC3"},{"bufferView":3,"byteOffset":0,"componentType":5126,"count":962,"type":"VEC2"},{"bufferView":4,"byteOffset":0,"componentType":5125,"count":504,"type":"SCALAR"},{"bufferView":5,"byteOffset":0,"componentType":5126,"count":338,"max":[12.649999618530273,2.1492550476159573e-15,35.099998474121094],"min":[-0.5,-15,-0.30000001192092896],"type":"VEC3"},{"bufferView":6,"byteOffset":0,"componentType":5126,"count":338,"type":"VEC3"},{"bufferView":7,"byteOffset":0,"componentType":5126,"count":338,"type":"VEC2"},{"bufferView":8,"byteOffset":0,"componentType":5125,"count":1140,"type":"SCALAR"},{"bufferView":9,"byteOffset":0,"componentType":5126,"count":762,"max":[22.950000762939453,1.5308084466174516e-15,25],"min":[-0.4000000059604645,-15,-0.30000001192092896],"type":"VEC3"},{"bufferView":10,"byteOffset":0,"componentType":5126,"count":762,"type":"VEC3"},{"bufferView":11,"byteOffset":0,"componentType":5126,"count":762,"type":"VEC2"},{"bufferView":12,"byteOffset":0,"componentType":5125,"count":1128,"type":"SCALAR"},{"bufferView":13,"byteOffset":0,"componentType":5126,"count":752,"max":[20.350000381469727,2.143131846440256e-15,35],"min":[-0.3499999940395355,-15,-0.30000001192092896],"type":"VEC3"},{"bufferView":14,"byteOffset":0,"componentType":5126,"count":752,"type":"VEC3"},{"bufferView":15,"byteOffset":0,"componentType":5126,"count":752,"type":"VEC2"},{"bufferView":16,"byteOffset":0,"componentType":5125,"count":132,"type":"SCALAR"},{"bufferView":17,"byteOffset":0,"componentType":5126,"count":84,"max":[25.048999786376953,2.1855658677570914e-15,35.69300079345703],"min":[4.492000102996826,-15,0],"type":"VEC3"},{"bufferView":18,"byteOffset":0,"componentType":5126,"count":84,"type":"VEC3"},{"bufferView":19,"byteOffset":0,"componentType":5126,"count":84,"type":"VEC2"},{"bufferView":20,"byteOffset":0,"componentType":5125,"count":1752,"type":"SCALAR"},{"bufferView":21,"byteOffset":0,"componentType":5126,"count":1170,"max":[22.948999404907227,1.702748935130023e-15,27.808000564575195],"min":[2.246000051498413,-15,-0.4880000054836273],"type":"VEC3"},{"bufferView":22,"byteOffset":0,"componentType":5126,"count":1170,"type":"VEC3"},{"bufferView":23,"byteOffset":0,"componentType":5126,"count":1170,"type":"VEC2"},{"bufferView":24,"byteOffset":0,"componentType":5125,"count":672,"type":"SCALAR"},{"bufferView":25,"byteOffset":0,"componentType":5126,"count":442,"max":[20.093000411987305,2.0270965912376525e-15,33.10499954223633],"min":[1.1469999551773071,-15,-0.4880000054836273],"type":"VEC3"},{"bufferView":26,"byteOffset":0,"componentType":5126,"count":442,"type":"VEC3"},{"bufferView":27,"byteOffset":0,"componentType":5126,"count":442,"type":"VEC2"},{"bufferView":28,"byteOffset":0,"componentType":5125,"count":756,"type":"SCALAR"},{"bufferView":29,"byteOffset":0,"componentType":5126,"count":508,"max":[28.954999923706055,1.6713367182810972e-15,27.295000076293945],"min":[3.759999990463257,-15,-0.4880000054836273],"type":"VEC3"},{"bufferView":30,"byteOffset":0,"componentType":5126,"count":508,"type":"VEC3"},{"bufferView":31,"byteOffset":0,"componentType":5126,"count":508,"type":"VEC2"},{"bufferView":32,"byteOffset":0,"componentType":5125,"count":52800,"type":"SCALAR"},{"bufferView":33,"byteOffset":0,"componentType":5126,"count":9978,"max":[5.5720319747924805,46.66835403442383,-41.698577880859375],"min":[-5.5720319747924805,-0.14773064851760864,-88.54521942138672],"type":"VEC3"},{"bufferView":34,"byteOffset":0,"componentType":5126,"count":9978,"type":"VEC3"},{"bufferView":35,"byteOffset":0,"componentType":5126,"count":9978,"type":"VEC2"},{"bufferView":36,"byteOffset":0,"componentType":5125,"count":52800,"type":"SCALAR"},{"bufferView":37,"byteOffset":0,"componentType":5126,"count":9980,"max":[5.5720319747924805,46.66835403442383,94.79885864257812],"min":[-5.5720319747924805,-0.14773064851760864,47.952213287353516],"type":"VEC3"},{"bufferView":38,"byteOffset":0,"componentType":5126,"count":9980,"type":"VEC3"},{"bufferView":39,"byteOffset":0,"componentType":5126,"count":9980,"type":"VEC2"},{"bufferView":40,"byteOffset":0,"componentType":5125,"count":311622,"type":"SCALAR"},{"bufferView":41,"byteOffset":0,"componentType":5126,"count":65532,"max":[44.64805221557617,127.41466522216797,97.23930358886719],"min":[-43.83419418334961,11.562446594238281,-97.84882354736328],"type":"VEC3"},{"bufferView":42,"byteOffset":0,"componentType":5126,"count":65532,"type":"VEC3"},{"bufferView":43,"byteOffset":0,"componentType":5126,"count":65532,"type":"VEC2"},{"bufferView":44,"byteOffset":0,"componentType":5125,"count":148167,"type":"SCALAR"},{"bufferView":45,"byteOffset":0,"componentType":5126,"count":31579,"max":[41.282569885253906,122.55741119384766,86.55245971679688],"min":[-40.468711853027344,12.406908988952637,-98.04529571533203],"type":"VEC3"},{"bufferView":46,"byteOffset":0,"componentType":5126,"count":31579,"type":"VEC3"},{"bufferView":47,"byteOffset":0,"componentType":5126,"count":31579,"type":"VEC2"}],"bufferViews":[{"buffer":0,"byteOffset":0,"byteLength":5760,"target":34963},{"buffer":0,"byteOffset":5760,"byteLength":11544,"target":34962},{"buffer":0,"byteOffset":17304,"byteLength":11544,"target":34962},{"buffer":0,"byteOffset":28848,"byteLength":7696,"target":34962},{"buffer":0,"byteOffset":36544,"byteLength":2016,"target":34963},{"buffer":0,"byteOffset":38560,"byteLength":4056,"target":34962},{"buffer":0,"byteOffset":42616,"byteLength":4056,"target":34962},{"buffer":0,"byteOffset":46672,"byteLength":2704,"target":34962},{"buffer":0,"byteOffset":49376,"byteLength":4560,"target":34963},{"buffer":0,"byteOffset":53936,"byteLength":9144,"target":34962},{"buffer":0,"byteOffset":63080,"byteLength":9144,"target":34962},{"buffer":0,"byteOffset":72224,"byteLength":6096,"target":34962},{"buffer":0,"byteOffset":78320,"byteLength":4512,"target":34963},{"buffer":0,"byteOffset":82832,"byteLength":9024,"target":34962},{"buffer":0,"byteOffset":91856,"byteLength":9024,"target":34962},{"buffer":0,"byteOffset":100880,"byteLength":6016,"target":34962},{"buffer":0,"byteOffset":106896,"byteLength":528,"target":34963},{"buffer":0,"byteOffset":107424,"byteLength":1008,"target":34962},{"buffer":0,"byteOffset":108432,"byteLength":1008,"target":34962},{"buffer":0,"byteOffset":109440,"byteLength":672,"target":34962},{"buffer":0,"byteOffset":110112,"byteLength":7008,"target":34963},{"buffer":0,"byteOffset":117120,"byteLength":14040,"target":34962},{"buffer":0,"byteOffset":131160,"byteLength":14040,"target":34962},{"buffer":0,"byteOffset":145200,"byteLength":9360,"target":34962},{"buffer":0,"byteOffset":154560,"byteLength":2688,"target":34963},{"buffer":0,"byteOffset":157248,"byteLength":5304,"target":34962},{"buffer":0,"byteOffset":162552,"byteLength":5304,"target":34962},{"buffer":0,"byteOffset":167856,"byteLength":3536,"target":34962},{"buffer":0,"byteOffset":171392,"byteLength":3024,"target":34963},{"buffer":0,"byteOffset":174416,"byteLength":6096,"target":34962},{"buffer":0,"byteOffset":180512,"byteLength":6096,"target":34962},{"buffer":0,"byteOffset":186608,"byteLength":4064,"target":34962},{"buffer":0,"byteOffset":190672,"byteLength":211200,"target":34963},{"buffer":0,"byteOffset":401872,"byteLength":119736,"target":34962},{"buffer":0,"byteOffset":521608,"byteLength":119736,"target":34962},{"buffer":0,"byteOffset":641344,"byteLength":79824,"target":34962},{"buffer":0,"byteOffset":721168,"byteLength":211200,"target":34963},{"buffer":0,"byteOffset":932368,"byteLength":119760,"target":34962},{"buffer":0,"byteOffset":1052128,"byteLength":119760,"target":34962},{"buffer":0,"byteOffset":1171888,"byteLength":79840,"target":34962},{"buffer":0,"byteOffset":1251728,"byteLength":1246488,"target":34963},{"buffer":0,"byteOffset":2498216,"byteLength":786384,"target":34962},{"buffer":0,"byteOffset":3284600,"byteLength":786384,"target":34962},{"buffer":0,"byteOffset":4070984,"byteLength":524256,"target":34962},{"buffer":0,"byteOffset":4595240,"byteLength":592668,"target":34963},{"buffer":0,"byteOffset":5187908,"byteLength":378948,"target":34962},{"buffer":0,"byteOffset":5566856,"byteLength":378948,"target":34962},{"buffer":0,"byteOffset":5945804,"byteLength":252632,"target":34962}],"extensions":{"KHR_lights_punctual":{"lights":[{"name":"Directional Light","type":"directional","intensity":3.2,"color":[1,1,1]}]}},"textures":[{"sampler":0,"source":0},{"sampler":0,"source":1},{"sampler":0,"source":2},{"sampler":0,"source":3}],"images":[{"uri":"texture.png","mimeType":"image/png"},{"uri":"Gltf_Import 2.jpg","mimeType":"image/jpeg"},{"uri":"Gltf_Import.png","mimeType":"image/png"},{"uri":"Gltf_Import 1.png","mimeType":"image/png"}],"samplers":[{"wrapS":10497,"wrapT":10497}],"scene":0,"scenes":[{"nodes":[0,5,6,11],"name":"vespa_scooter"}],"extensionsUsed":["KHR_texture_transform","KHR_lights_punctual"],"extensionsRequired":["KHR_lights_punctual"],"buffers":[{"byteLength":6198436,"uri":"vespa_scooter.bin"}]}