<svg xmlns="http://www.w3.org/2000/svg" xmlns:xlink="http://www.w3.org/1999/xlink" width="512" zoomAndPan="magnify" viewBox="0 0 384 383.999986" height="512" preserveAspectRatio="xMidYMid meet" version="1.0"><defs><g/><clipPath id="d2fbee5d0c"><rect x="0" width="144" y="0" height="116"/></clipPath><clipPath id="1a343724c1"><rect x="0" width="200" y="0" height="115"/></clipPath></defs><g transform="matrix(1, 0, 0, 1, 26, 135)"><g clip-path="url(#d2fbee5d0c)"><g fill="#cb465a" fill-opacity="1"><g transform="translate(1.381387, 90.17579)"><g><path d="M 37.25 0 L 6.484375 0 L 6.484375 -60.03125 L 37.25 -60.03125 L 37.25 -49.9375 L 18.59375 -49.9375 L 18.59375 -36.25 L 35.96875 -36.25 L 35.96875 -26.109375 L 18.59375 -26.109375 L 18.59375 -10.265625 L 37.25 -10.265625 Z M 37.25 0 "/></g></g></g><g fill="#cb465a" fill-opacity="1"><g transform="translate(38.605079, 90.17579)"><g><path d="M 33.921875 -13.546875 C 33.921875 -10.429688 33.257812 -7.804688 31.9375 -5.671875 C 30.625 -3.535156 28.6875 -1.914062 26.125 -0.8125 C 23.570312 0.28125 20.445312 0.828125 16.75 0.828125 C 14.039062 0.828125 11.609375 0.613281 9.453125 0.1875 C 7.304688 -0.238281 5.207031 -0.90625 3.15625 -1.8125 L 3.15625 -12.28125 C 5.132812 -11.207031 7.328125 -10.304688 9.734375 -9.578125 C 12.140625 -8.859375 14.382812 -8.5 16.46875 -8.5 C 18.4375 -8.5 19.890625 -8.859375 20.828125 -9.578125 C 21.773438 -10.304688 22.25 -11.300781 22.25 -12.5625 C 22.25 -13.332031 22.054688 -14.035156 21.671875 -14.671875 C 21.296875 -15.316406 20.507812 -16.019531 19.3125 -16.78125 C 18.125 -17.550781 16.300781 -18.5 13.84375 -19.625 C 11.457031 -20.75 9.460938 -21.953125 7.859375 -23.234375 C 6.265625 -24.523438 5.066406 -26.023438 4.265625 -27.734375 C 3.472656 -29.441406 3.078125 -31.488281 3.078125 -33.875 C 3.078125 -38.03125 4.523438 -41.222656 7.421875 -43.453125 C 10.328125 -45.691406 14.257812 -46.8125 19.21875 -46.8125 C 21.757812 -46.8125 24.171875 -46.515625 26.453125 -45.921875 C 28.742188 -45.335938 31.054688 -44.429688 33.390625 -43.203125 L 30.015625 -34.484375 C 28.210938 -35.421875 26.445312 -36.195312 24.71875 -36.8125 C 22.988281 -37.425781 21.222656 -37.734375 19.421875 -37.734375 C 17.835938 -37.734375 16.632812 -37.445312 15.8125 -36.875 C 14.988281 -36.300781 14.578125 -35.476562 14.578125 -34.40625 C 14.578125 -33.644531 14.78125 -32.972656 15.1875 -32.390625 C 15.601562 -31.816406 16.398438 -31.179688 17.578125 -30.484375 C 18.753906 -29.785156 20.476562 -28.875 22.75 -27.75 C 24.988281 -26.6875 26.941406 -25.535156 28.609375 -24.296875 C 30.285156 -23.066406 31.585938 -21.601562 32.515625 -19.90625 C 33.453125 -18.21875 33.921875 -16.097656 33.921875 -13.546875 Z M 33.921875 -13.546875 "/></g></g></g><g fill="#cb465a" fill-opacity="1"><g transform="translate(70.942485, 90.17579)"><g><path d="M 23 -8.953125 C 24.0625 -8.953125 25.132812 -9.070312 26.21875 -9.3125 C 27.300781 -9.5625 28.398438 -9.894531 29.515625 -10.3125 L 29.515625 -1.265625 C 28.234375 -0.640625 26.734375 -0.132812 25.015625 0.25 C 23.304688 0.632812 21.46875 0.828125 19.5 0.828125 C 16.820312 0.828125 14.523438 0.34375 12.609375 -0.625 C 10.691406 -1.601562 9.222656 -3.179688 8.203125 -5.359375 C 7.191406 -7.535156 6.6875 -10.429688 6.6875 -14.046875 L 6.6875 -36.703125 L 1.4375 -36.703125 L 1.4375 -42.296875 L 7.59375 -45.828125 L 10.671875 -55.671875 L 18.4375 -55.671875 L 18.4375 -45.953125 L 28.984375 -45.953125 L 28.984375 -36.703125 L 18.4375 -36.703125 L 18.4375 -14.25 C 18.4375 -12.46875 18.828125 -11.140625 19.609375 -10.265625 C 20.390625 -9.390625 21.519531 -8.953125 23 -8.953125 Z M 23 -8.953125 "/></g></g></g><g fill="#cb465a" fill-opacity="1"><g transform="translate(98.229359, 90.17579)"><g><path d="M 43.078125 -45.953125 L 43.078125 0 L 33.953125 0 L 32.515625 -5.875 L 31.859375 -5.875 C 31.035156 -4.363281 30.007812 -3.113281 28.78125 -2.125 C 27.550781 -1.144531 26.171875 -0.410156 24.640625 0.078125 C 23.109375 0.578125 21.476562 0.828125 19.75 0.828125 C 16.738281 0.828125 14.171875 0.195312 12.046875 -1.0625 C 9.929688 -2.320312 8.3125 -4.191406 7.1875 -6.671875 C 6.0625 -9.148438 5.5 -12.25 5.5 -15.96875 L 5.5 -45.953125 L 17.203125 -45.953125 L 17.203125 -19.171875 C 17.203125 -15.804688 17.664062 -13.273438 18.59375 -11.578125 C 19.53125 -9.878906 21.023438 -9.03125 23.078125 -9.03125 C 25.265625 -9.03125 26.953125 -9.59375 28.140625 -10.71875 C 29.335938 -11.84375 30.164062 -13.476562 30.625 -15.625 C 31.09375 -17.769531 31.328125 -20.390625 31.328125 -23.484375 L 31.328125 -45.953125 Z M 43.078125 -45.953125 "/></g></g></g></g></g><g transform="matrix(1, 0, 0, 1, 169, 134)"><g clip-path="url(#1a343724c1)"><g fill="#cb465a" fill-opacity="1"><g transform="translate(0.467767, 91.875341)"><g><path d="M 39.875 1.5625 C 35.125 1.5625 32.75 -0.484375 32.75 -4.578125 C 32.75 -5.910156 32.945312 -7.445312 33.34375 -9.1875 C 33.738281 -10.925781 34.300781 -13.171875 35.03125 -15.921875 C 35.882812 -18.785156 36.523438 -21.222656 36.953125 -23.234375 C 37.378906 -25.242188 37.59375 -27.039062 37.59375 -28.625 C 37.59375 -32.769531 35.765625 -34.84375 32.109375 -34.84375 C 31.128906 -34.84375 30.125 -34.722656 29.09375 -34.484375 L 21.765625 0 L 8.59375 0 L 21.03125 -58.171875 L 34.578125 -60 L 30.09375 -38.875 L 30.828125 -38.875 C 33.203125 -38.875 35.394531 -39.695312 37.40625 -41.34375 C 39.414062 -42.988281 40.984375 -45.046875 42.109375 -47.515625 C 43.242188 -49.984375 43.8125 -52.410156 43.8125 -54.796875 C 43.8125 -57.597656 42.972656 -59.894531 41.296875 -61.6875 C 39.617188 -63.488281 37.101562 -64.390625 33.75 -64.390625 C 28.8125 -64.390625 24.484375 -63.503906 20.765625 -61.734375 C 17.046875 -59.972656 14.164062 -57.414062 12.125 -54.0625 C 10.082031 -50.707031 9.0625 -46.742188 9.0625 -42.171875 C 9.0625 -39.910156 9.273438 -38.335938 9.703125 -37.453125 C 10.128906 -36.566406 10.34375 -36.066406 10.34375 -35.953125 C 7.039062 -35.953125 4.582031 -36.632812 2.96875 -38 C 1.351562 -39.375 0.546875 -41.644531 0.546875 -44.8125 C 0.546875 -48.71875 2.144531 -52.515625 5.34375 -56.203125 C 8.550781 -59.890625 12.65625 -62.878906 17.65625 -65.171875 C 22.65625 -67.460938 27.65625 -68.609375 32.65625 -68.609375 C 37.226562 -68.609375 41.066406 -67.9375 44.171875 -66.59375 C 47.285156 -65.25 49.601562 -63.460938 51.125 -61.234375 C 52.65625 -59.015625 53.421875 -56.59375 53.421875 -53.96875 C 53.421875 -51.101562 52.535156 -48.234375 50.765625 -45.359375 C 48.992188 -42.492188 46.585938 -40.148438 43.546875 -38.328125 C 45.859375 -37.648438 47.484375 -36.535156 48.421875 -34.984375 C 49.367188 -33.429688 49.84375 -31.492188 49.84375 -29.171875 C 49.84375 -27.410156 49.628906 -25.535156 49.203125 -23.546875 C 48.773438 -21.566406 48.164062 -19.113281 47.375 -16.1875 C 46.894531 -14.300781 46.441406 -12.441406 46.015625 -10.609375 C 45.585938 -8.773438 45.375 -7.25 45.375 -6.03125 C 45.375 -4.632812 45.691406 -3.382812 46.328125 -2.28125 C 46.972656 -1.1875 47.84375 -0.425781 48.9375 0 C 45.21875 1.039062 42.195312 1.5625 39.875 1.5625 Z M 39.875 1.5625 "/></g></g></g><g fill="#cb465a" fill-opacity="1"><g transform="translate(55.444486, 91.875341)"><g><path d="M 15.28125 -50.671875 C 13.257812 -50.671875 11.546875 -51.367188 10.140625 -52.765625 C 8.742188 -54.171875 8.046875 -55.882812 8.046875 -57.90625 C 8.046875 -59.914062 8.742188 -61.632812 10.140625 -63.0625 C 11.546875 -64.5 13.257812 -65.21875 15.28125 -65.21875 C 17.289062 -65.21875 19.007812 -64.5 20.4375 -63.0625 C 21.875 -61.632812 22.59375 -59.914062 22.59375 -57.90625 C 22.59375 -55.882812 21.875 -54.171875 20.4375 -52.765625 C 19.007812 -51.367188 17.289062 -50.671875 15.28125 -50.671875 Z M 9.0625 0.546875 C 6.132812 0.546875 3.769531 -0.363281 1.96875 -2.1875 C 0.164062 -4.019531 -0.734375 -6.765625 -0.734375 -10.421875 C -0.734375 -11.953125 -0.488281 -13.9375 0 -16.375 L 6.21875 -45.734375 L 19.390625 -45.734375 L 12.8125 -14.640625 C 12.5625 -13.722656 12.4375 -12.742188 12.4375 -11.703125 C 12.4375 -10.484375 12.722656 -9.613281 13.296875 -9.09375 C 13.878906 -8.582031 14.84375 -8.328125 16.1875 -8.328125 C 17.957031 -8.328125 19.601562 -9.070312 21.125 -10.5625 C 22.65625 -12.0625 23.753906 -14 24.421875 -16.375 L 28.265625 -16.375 C 26.003906 -9.789062 23.101562 -5.320312 19.5625 -2.96875 C 16.03125 -0.625 12.53125 0.546875 9.0625 0.546875 Z M 9.0625 0.546875 "/></g></g></g><g fill="#cb465a" fill-opacity="1"><g transform="translate(79.868419, 91.875341)"><g><path d="M 10.96875 0.546875 C 7.5 0.546875 4.601562 -0.640625 2.28125 -3.015625 C -0.03125 -5.390625 -1.1875 -9.109375 -1.1875 -14.171875 C -1.1875 -18.691406 -0.289062 -23.4375 1.5 -28.40625 C 3.300781 -33.375 5.984375 -37.578125 9.546875 -41.015625 C 13.117188 -44.460938 17.375 -46.1875 22.3125 -46.1875 C 24.8125 -46.1875 26.671875 -45.757812 27.890625 -44.90625 C 29.117188 -44.050781 29.734375 -42.925781 29.734375 -41.53125 L 29.734375 -41.15625 L 34.203125 -62.203125 L 47.75 -64.03125 L 37.234375 -14.640625 C 36.984375 -13.722656 36.859375 -12.742188 36.859375 -11.703125 C 36.859375 -10.484375 37.144531 -9.613281 37.71875 -9.09375 C 38.300781 -8.582031 39.265625 -8.328125 40.609375 -8.328125 C 42.316406 -8.328125 43.796875 -9.054688 45.046875 -10.515625 C 46.296875 -11.984375 47.285156 -13.9375 48.015625 -16.375 L 51.859375 -16.375 C 48.140625 -5.457031 42.015625 0 33.484375 0 C 30.984375 0 28.953125 -0.671875 27.390625 -2.015625 C 25.835938 -3.359375 24.878906 -5.304688 24.515625 -7.859375 C 22.929688 -5.421875 21.023438 -3.410156 18.796875 -1.828125 C 16.566406 -0.242188 13.957031 0.546875 10.96875 0.546875 Z M 16.921875 -8.328125 C 18.378906 -8.328125 19.851562 -8.992188 21.34375 -10.328125 C 22.84375 -11.671875 23.867188 -13.535156 24.421875 -15.921875 L 24.421875 -16.375 L 28.90625 -37.3125 C 28.351562 -39.445312 27.101562 -40.515625 25.15625 -40.515625 C 22.71875 -40.515625 20.519531 -39.097656 18.5625 -36.265625 C 16.613281 -33.429688 15.085938 -30.015625 13.984375 -26.015625 C 12.890625 -22.023438 12.34375 -18.503906 12.34375 -15.453125 C 12.34375 -12.410156 12.785156 -10.460938 13.671875 -9.609375 C 14.554688 -8.753906 15.640625 -8.328125 16.921875 -8.328125 Z M 16.921875 -8.328125 "/></g></g></g><g fill="#cb465a" fill-opacity="1"><g transform="translate(127.893009, 91.875341)"><g><path d="M 13.078125 0.546875 C 8.566406 0.546875 5.0625 -0.625 2.5625 -2.96875 C 0.0625 -5.320312 -1.1875 -9 -1.1875 -14 C -1.1875 -18.207031 -0.363281 -22.835938 1.28125 -27.890625 C 2.925781 -32.953125 5.609375 -37.328125 9.328125 -41.015625 C 13.046875 -44.710938 17.769531 -46.5625 23.5 -46.5625 C 30.207031 -46.5625 33.5625 -43.632812 33.5625 -37.78125 C 33.5625 -34.363281 32.585938 -31.222656 30.640625 -28.359375 C 28.691406 -25.492188 26.097656 -23.191406 22.859375 -21.453125 C 19.628906 -19.710938 16.1875 -18.722656 12.53125 -18.484375 C 12.40625 -16.648438 12.34375 -15.425781 12.34375 -14.8125 C 12.34375 -11.832031 12.859375 -9.804688 13.890625 -8.734375 C 14.929688 -7.671875 16.613281 -7.140625 18.9375 -7.140625 C 22.226562 -7.140625 25.046875 -7.898438 27.390625 -9.421875 C 29.742188 -10.941406 32.320312 -13.257812 35.125 -16.375 L 38.234375 -16.375 C 31.460938 -5.09375 23.078125 0.546875 13.078125 0.546875 Z M 13.265625 -22.875 C 15.515625 -22.988281 17.660156 -23.773438 19.703125 -25.234375 C 21.753906 -26.703125 23.40625 -28.5625 24.65625 -30.8125 C 25.90625 -33.070312 26.53125 -35.453125 26.53125 -37.953125 C 26.53125 -40.453125 25.765625 -41.703125 24.234375 -41.703125 C 22.046875 -41.703125 19.898438 -39.78125 17.796875 -35.9375 C 15.691406 -32.101562 14.179688 -27.75 13.265625 -22.875 Z M 13.265625 -22.875 "/></g></g></g><g fill="#cb465a" fill-opacity="1"><g transform="translate(163.019571, 91.875341)"><g><path d="M 6.21875 -45.734375 L 19.390625 -45.734375 L 18.203125 -40.0625 C 20.273438 -41.894531 22.148438 -43.296875 23.828125 -44.265625 C 25.503906 -45.242188 27.316406 -45.734375 29.265625 -45.734375 C 31.222656 -45.734375 32.765625 -45.0625 33.890625 -43.71875 C 35.015625 -42.375 35.578125 -40.757812 35.578125 -38.875 C 35.578125 -37.101562 35 -35.546875 33.84375 -34.203125 C 32.6875 -32.867188 31.070312 -32.203125 29 -32.203125 C 27.65625 -32.203125 26.753906 -32.519531 26.296875 -33.15625 C 25.835938 -33.800781 25.488281 -34.734375 25.25 -35.953125 C 25.0625 -36.742188 24.875 -37.320312 24.6875 -37.6875 C 24.507812 -38.050781 24.175781 -38.234375 23.6875 -38.234375 C 22.40625 -38.234375 21.320312 -37.972656 20.4375 -37.453125 C 19.550781 -36.929688 18.410156 -36.035156 17.015625 -34.765625 L 9.703125 0 L -3.46875 0 Z M 6.21875 -45.734375 "/></g></g></g></g></g></svg>