<svg xmlns="http://www.w3.org/2000/svg" xmlns:xlink="http://www.w3.org/1999/xlink" width="544" zoomAndPan="magnify" viewBox="0 0 408 172.499995" height="230" preserveAspectRatio="xMidYMid meet" version="1.0"><defs><g/><clipPath id="d8ef9d59e4"><rect x="0" width="143" y="0" height="116"/></clipPath><clipPath id="5148b7c679"><rect x="0" width="200" y="0" height="116"/></clipPath></defs><g transform="matrix(1, 0, 0, 1, 36, 29)"><g clip-path="url(#d8ef9d59e4)"><g fill="#cb465a" fill-opacity="1"><g transform="translate(1.249465, 90.375306)"><g><path d="M 37.125 0 L 6.46875 0 L 6.46875 -59.859375 L 37.125 -59.859375 L 37.125 -49.78125 L 18.546875 -49.78125 L 18.546875 -36.15625 L 35.859375 -36.15625 L 35.859375 -26.03125 L 18.546875 -26.03125 L 18.546875 -10.234375 L 37.125 -10.234375 Z M 37.125 0 "/></g></g></g><g fill="#cb465a" fill-opacity="1"><g transform="translate(38.365575, 90.375306)"><g><path d="M 33.8125 -13.515625 C 33.8125 -10.398438 33.15625 -7.773438 31.84375 -5.640625 C 30.539062 -3.515625 28.613281 -1.90625 26.0625 -0.8125 C 23.507812 0.269531 20.390625 0.8125 16.703125 0.8125 C 14.003906 0.8125 11.582031 0.597656 9.4375 0.171875 C 7.289062 -0.242188 5.195312 -0.898438 3.15625 -1.796875 L 3.15625 -12.234375 C 5.113281 -11.171875 7.296875 -10.273438 9.703125 -9.546875 C 12.109375 -8.828125 14.347656 -8.46875 16.421875 -8.46875 C 18.378906 -8.46875 19.828125 -8.828125 20.765625 -9.546875 C 21.710938 -10.273438 22.1875 -11.269531 22.1875 -12.53125 C 22.1875 -13.289062 21.992188 -13.988281 21.609375 -14.625 C 21.234375 -15.269531 20.453125 -15.972656 19.265625 -16.734375 C 18.078125 -17.503906 16.253906 -18.445312 13.796875 -19.5625 C 11.421875 -20.6875 9.429688 -21.890625 7.828125 -23.171875 C 6.234375 -24.453125 5.039062 -25.945312 4.25 -27.65625 C 3.46875 -29.363281 3.078125 -31.40625 3.078125 -33.78125 C 3.078125 -37.925781 4.519531 -41.109375 7.40625 -43.328125 C 10.300781 -45.554688 14.21875 -46.671875 19.15625 -46.671875 C 21.695312 -46.671875 24.101562 -46.375 26.375 -45.78125 C 28.65625 -45.195312 30.957031 -44.289062 33.28125 -43.0625 L 29.921875 -34.390625 C 28.117188 -35.316406 26.359375 -36.085938 24.640625 -36.703125 C 22.921875 -37.316406 21.160156 -37.625 19.359375 -37.625 C 17.773438 -37.625 16.570312 -37.335938 15.75 -36.765625 C 14.9375 -36.191406 14.53125 -35.375 14.53125 -34.3125 C 14.53125 -33.539062 14.734375 -32.867188 15.140625 -32.296875 C 15.554688 -31.722656 16.347656 -31.085938 17.515625 -30.390625 C 18.691406 -29.703125 20.414062 -28.796875 22.6875 -27.671875 C 24.914062 -26.609375 26.863281 -25.460938 28.53125 -24.234375 C 30.195312 -23.003906 31.492188 -21.539062 32.421875 -19.84375 C 33.347656 -18.15625 33.8125 -16.046875 33.8125 -13.515625 Z M 33.8125 -13.515625 "/></g></g></g><g fill="#cb465a" fill-opacity="1"><g transform="translate(70.60952, 90.375306)"><g><path d="M 22.921875 -8.921875 C 23.984375 -8.921875 25.050781 -9.039062 26.125 -9.28125 C 27.207031 -9.53125 28.3125 -9.863281 29.4375 -10.28125 L 29.4375 -1.265625 C 28.15625 -0.640625 26.660156 -0.140625 24.953125 0.234375 C 23.242188 0.617188 21.410156 0.8125 19.453125 0.8125 C 16.773438 0.8125 14.476562 0.328125 12.5625 -0.640625 C 10.65625 -1.609375 9.195312 -3.175781 8.1875 -5.34375 C 7.175781 -7.507812 6.671875 -10.394531 6.671875 -14 L 6.671875 -36.59375 L 1.4375 -36.59375 L 1.4375 -42.171875 L 7.578125 -45.6875 L 10.640625 -55.515625 L 18.375 -55.515625 L 18.375 -45.8125 L 28.90625 -45.8125 L 28.90625 -36.59375 L 18.375 -36.59375 L 18.375 -14.203125 C 18.375 -12.429688 18.765625 -11.109375 19.546875 -10.234375 C 20.328125 -9.359375 21.453125 -8.921875 22.921875 -8.921875 Z M 22.921875 -8.921875 "/></g></g></g><g fill="#cb465a" fill-opacity="1"><g transform="translate(97.81753, 90.375306)"><g><path d="M 42.953125 -45.8125 L 42.953125 0 L 33.859375 0 L 32.421875 -5.859375 L 31.765625 -5.859375 C 30.953125 -4.359375 29.929688 -3.113281 28.703125 -2.125 C 27.472656 -1.144531 26.09375 -0.410156 24.5625 0.078125 C 23.03125 0.566406 21.40625 0.8125 19.6875 0.8125 C 16.6875 0.8125 14.128906 0.1875 12.015625 -1.0625 C 9.898438 -2.320312 8.28125 -4.1875 7.15625 -6.65625 C 6.039062 -9.125 5.484375 -12.210938 5.484375 -15.921875 L 5.484375 -45.8125 L 17.15625 -45.8125 L 17.15625 -19.125 C 17.15625 -15.757812 17.617188 -13.226562 18.546875 -11.53125 C 19.472656 -9.84375 20.960938 -9 23.015625 -9 C 25.191406 -9 26.875 -9.554688 28.0625 -10.671875 C 29.25 -11.796875 30.070312 -13.429688 30.53125 -15.578125 C 31 -17.722656 31.234375 -20.335938 31.234375 -23.421875 L 31.234375 -45.8125 Z M 42.953125 -45.8125 "/></g></g></g></g></g><g transform="matrix(1, 0, 0, 1, 178, 28)"><g clip-path="url(#5148b7c679)"><g fill="#cb465a" fill-opacity="1"><g transform="translate(0.925189, 92.072834)"><g><path d="M 39.765625 1.546875 C 35.023438 1.546875 32.65625 -0.488281 32.65625 -4.5625 C 32.65625 -5.894531 32.851562 -7.425781 33.25 -9.15625 C 33.644531 -10.894531 34.207031 -13.132812 34.9375 -15.875 C 35.789062 -18.726562 36.425781 -21.160156 36.84375 -23.171875 C 37.269531 -25.179688 37.484375 -26.972656 37.484375 -28.546875 C 37.484375 -32.679688 35.660156 -34.75 32.015625 -34.75 C 31.046875 -34.75 30.039062 -34.628906 29 -34.390625 L 21.703125 0 L 8.578125 0 L 20.984375 -58.015625 L 34.484375 -59.84375 L 30.015625 -38.765625 L 30.734375 -38.765625 C 33.109375 -38.765625 35.296875 -39.582031 37.296875 -41.21875 C 39.304688 -42.863281 40.875 -44.914062 42 -47.375 C 43.125 -49.84375 43.6875 -52.265625 43.6875 -54.640625 C 43.6875 -57.441406 42.847656 -59.738281 41.171875 -61.53125 C 39.503906 -63.320312 37 -64.21875 33.65625 -64.21875 C 28.726562 -64.21875 24.410156 -63.332031 20.703125 -61.5625 C 16.992188 -59.800781 14.117188 -57.25 12.078125 -53.90625 C 10.046875 -50.5625 9.03125 -46.609375 9.03125 -42.046875 C 9.03125 -39.796875 9.242188 -38.226562 9.671875 -37.34375 C 10.097656 -36.46875 10.3125 -35.96875 10.3125 -35.84375 C 7.019531 -35.84375 4.566406 -36.523438 2.953125 -37.890625 C 1.347656 -39.265625 0.546875 -41.535156 0.546875 -44.703125 C 0.546875 -48.585938 2.140625 -52.367188 5.328125 -56.046875 C 8.523438 -59.734375 12.613281 -62.710938 17.59375 -64.984375 C 22.582031 -67.265625 27.570312 -68.40625 32.5625 -68.40625 C 37.125 -68.40625 40.953125 -67.738281 44.046875 -66.40625 C 47.148438 -65.070312 49.460938 -63.289062 50.984375 -61.0625 C 52.503906 -58.84375 53.265625 -56.425781 53.265625 -53.8125 C 53.265625 -50.957031 52.382812 -48.097656 50.625 -45.234375 C 48.863281 -42.378906 46.460938 -40.039062 43.421875 -38.21875 C 45.734375 -37.550781 47.359375 -36.441406 48.296875 -34.890625 C 49.242188 -33.335938 49.71875 -31.40625 49.71875 -29.09375 C 49.71875 -27.332031 49.503906 -25.460938 49.078125 -23.484375 C 48.648438 -21.515625 48.039062 -19.066406 47.25 -16.140625 C 46.757812 -14.253906 46.300781 -12.398438 45.875 -10.578125 C 45.457031 -8.753906 45.25 -7.234375 45.25 -6.015625 C 45.25 -4.617188 45.566406 -3.375 46.203125 -2.28125 C 46.835938 -1.1875 47.703125 -0.425781 48.796875 0 C 45.085938 1.03125 42.078125 1.546875 39.765625 1.546875 Z M 39.765625 1.546875 "/></g></g></g><g fill="#cb465a" fill-opacity="1"><g transform="translate(55.743015, 92.072834)"><g><path d="M 15.234375 -50.53125 C 13.222656 -50.53125 11.519531 -51.226562 10.125 -52.625 C 8.726562 -54.03125 8.03125 -55.734375 8.03125 -57.734375 C 8.03125 -59.742188 8.726562 -61.460938 10.125 -62.890625 C 11.519531 -64.316406 13.222656 -65.03125 15.234375 -65.03125 C 17.242188 -65.03125 18.960938 -64.316406 20.390625 -62.890625 C 21.816406 -61.460938 22.53125 -59.742188 22.53125 -57.734375 C 22.53125 -55.734375 21.816406 -54.03125 20.390625 -52.625 C 18.960938 -51.226562 17.242188 -50.53125 15.234375 -50.53125 Z M 9.03125 0.546875 C 6.113281 0.546875 3.753906 -0.363281 1.953125 -2.1875 C 0.160156 -4.007812 -0.734375 -6.75 -0.734375 -10.40625 C -0.734375 -11.914062 -0.488281 -13.890625 0 -16.328125 L 6.203125 -45.609375 L 19.34375 -45.609375 L 12.765625 -14.59375 C 12.523438 -13.6875 12.40625 -12.710938 12.40625 -11.671875 C 12.40625 -10.460938 12.691406 -9.597656 13.265625 -9.078125 C 13.847656 -8.554688 14.804688 -8.296875 16.140625 -8.296875 C 17.910156 -8.296875 19.554688 -9.039062 21.078125 -10.53125 C 22.597656 -12.019531 23.691406 -13.953125 24.359375 -16.328125 L 28.1875 -16.328125 C 25.9375 -9.753906 23.046875 -5.296875 19.515625 -2.953125 C 15.992188 -0.617188 12.5 0.546875 9.03125 0.546875 Z M 9.03125 0.546875 "/></g></g></g><g fill="#cb465a" fill-opacity="1"><g transform="translate(80.096359, 92.072834)"><g><path d="M 10.953125 0.546875 C 7.484375 0.546875 4.59375 -0.632812 2.28125 -3 C -0.03125 -5.375 -1.1875 -9.085938 -1.1875 -14.140625 C -1.1875 -18.640625 -0.289062 -23.363281 1.5 -28.3125 C 3.300781 -33.269531 5.976562 -37.46875 9.53125 -40.90625 C 13.09375 -44.34375 17.332031 -46.0625 22.25 -46.0625 C 24.75 -46.0625 26.601562 -45.632812 27.8125 -44.78125 C 29.03125 -43.9375 29.640625 -42.8125 29.640625 -41.40625 L 29.640625 -41.046875 L 34.109375 -62.03125 L 47.609375 -63.859375 L 37.125 -14.59375 C 36.882812 -13.6875 36.765625 -12.710938 36.765625 -11.671875 C 36.765625 -10.460938 37.050781 -9.597656 37.625 -9.078125 C 38.207031 -8.554688 39.164062 -8.296875 40.5 -8.296875 C 42.207031 -8.296875 43.679688 -9.023438 44.921875 -10.484375 C 46.171875 -11.941406 47.160156 -13.890625 47.890625 -16.328125 L 51.71875 -16.328125 C 48.007812 -5.441406 41.898438 0 33.390625 0 C 30.890625 0 28.863281 -0.664062 27.3125 -2 C 25.769531 -3.34375 24.816406 -5.289062 24.453125 -7.84375 C 22.867188 -5.414062 20.96875 -3.410156 18.75 -1.828125 C 16.53125 -0.242188 13.929688 0.546875 10.953125 0.546875 Z M 16.875 -8.296875 C 18.332031 -8.296875 19.804688 -8.960938 21.296875 -10.296875 C 22.785156 -11.640625 23.804688 -13.5 24.359375 -15.875 L 24.359375 -16.328125 L 28.828125 -37.21875 C 28.273438 -39.34375 27.023438 -40.40625 25.078125 -40.40625 C 22.648438 -40.40625 20.460938 -38.988281 18.515625 -36.15625 C 16.566406 -33.332031 15.046875 -29.929688 13.953125 -25.953125 C 12.859375 -21.972656 12.3125 -18.460938 12.3125 -15.421875 C 12.3125 -12.378906 12.75 -10.429688 13.625 -9.578125 C 14.507812 -8.722656 15.59375 -8.296875 16.875 -8.296875 Z M 16.875 -8.296875 "/></g></g></g><g fill="#cb465a" fill-opacity="1"><g transform="translate(127.982151, 92.072834)"><g><path d="M 13.046875 0.546875 C 8.546875 0.546875 5.046875 -0.617188 2.546875 -2.953125 C 0.0546875 -5.296875 -1.1875 -8.960938 -1.1875 -13.953125 C -1.1875 -18.148438 -0.367188 -22.769531 1.265625 -27.8125 C 2.910156 -32.863281 5.585938 -37.226562 9.296875 -40.90625 C 13.015625 -44.59375 17.726562 -46.4375 23.4375 -46.4375 C 30.132812 -46.4375 33.484375 -43.515625 33.484375 -37.671875 C 33.484375 -34.265625 32.507812 -31.128906 30.5625 -28.265625 C 28.613281 -25.410156 26.023438 -23.117188 22.796875 -21.390625 C 19.578125 -19.660156 16.144531 -18.671875 12.5 -18.421875 C 12.375 -16.597656 12.3125 -15.382812 12.3125 -14.78125 C 12.3125 -11.800781 12.828125 -9.773438 13.859375 -8.703125 C 14.898438 -7.640625 16.570312 -7.109375 18.875 -7.109375 C 22.164062 -7.109375 24.976562 -7.867188 27.3125 -9.390625 C 29.65625 -10.910156 32.226562 -13.222656 35.03125 -16.328125 L 38.125 -16.328125 C 31.375 -5.078125 23.015625 0.546875 13.046875 0.546875 Z M 13.234375 -22.796875 C 15.484375 -22.921875 17.625 -23.710938 19.65625 -25.171875 C 21.695312 -26.628906 23.335938 -28.484375 24.578125 -30.734375 C 25.828125 -32.984375 26.453125 -35.359375 26.453125 -37.859375 C 26.453125 -40.347656 25.691406 -41.59375 24.171875 -41.59375 C 21.984375 -41.59375 19.835938 -39.675781 17.734375 -35.84375 C 15.640625 -32.019531 14.140625 -27.671875 13.234375 -22.796875 Z M 13.234375 -22.796875 "/></g></g></g><g fill="#cb465a" fill-opacity="1"><g transform="translate(163.007191, 92.072834)"><g><path d="M 6.203125 -45.609375 L 19.34375 -45.609375 L 18.15625 -39.953125 C 20.21875 -41.773438 22.082031 -43.171875 23.75 -44.140625 C 25.425781 -45.117188 27.238281 -45.609375 29.1875 -45.609375 C 31.132812 -45.609375 32.671875 -44.9375 33.796875 -43.59375 C 34.921875 -42.257812 35.484375 -40.648438 35.484375 -38.765625 C 35.484375 -37.003906 34.90625 -35.453125 33.75 -34.109375 C 32.59375 -32.773438 30.984375 -32.109375 28.921875 -32.109375 C 27.578125 -32.109375 26.675781 -32.425781 26.21875 -33.0625 C 25.769531 -33.707031 25.421875 -34.632812 25.171875 -35.84375 C 24.992188 -36.632812 24.8125 -37.210938 24.625 -37.578125 C 24.445312 -37.941406 24.113281 -38.125 23.625 -38.125 C 22.34375 -38.125 21.257812 -37.863281 20.375 -37.34375 C 19.5 -36.832031 18.363281 -35.9375 16.96875 -34.65625 L 9.671875 0 L -3.46875 0 Z M 6.203125 -45.609375 "/></g></g></g></g></g></svg>