<?xml version="1.0" encoding="UTF-8"?>
<svg id="Capa_2" data-name="Capa 2" xmlns="http://www.w3.org/2000/svg" viewBox="0 0 671.3 155.8">
  <defs>
    <style>
      .cls-1 {
        fill: #f9f5f5;
      }
    </style>
  </defs>
  <g id="Capa_1-2" data-name="Capa 1">
    <g>
      <g>
        <path class="cls-1" d="M436.81,117.97c-10.78,27.26-39.46,37.83-57.97,37.83-30.1,0-44.54-13.42-44.54-50.04S351.99,0,405.28,0c19.12,0,33.97,7.53,33.97,27.26,0,10.78-3.86,18.71-14.24,18.71-3.26,0-7.73-.81-11.59-5.29,4.88-2.44,9.36-10.98,9.36-18.71,0-6.51-3.26-12.41-12.41-12.41-22.37,0-42.31,53.49-42.31,94.99,0,18.71,4.88,31.73,24.41,31.73,15.87,0,30.31-7.73,39.66-20.34l4.68,2.03Z"/>
        <path class="cls-1" d="M483.38,10.17l-23.39,109.84c-.61,2.64-.81,4.68-.81,6.51,0,5.7,2.64,7.53,8.34,7.53,7.93,0,15.25-7.73,18.31-17.9h8.54c-11.59,33.15-31.73,37.63-42.71,37.63-12.2,0-21.76-7.32-21.76-24.41,0-3.86.61-8.34,1.63-13.22l21.76-101.9,30.1-4.07Z"/>
        <path class="cls-1" d="M579.17,50.85l-14.65,69.16c-.61,2.64-.81,4.68-.81,6.51,0,5.7,2.64,7.53,8.34,7.53,7.93,0,13.42-7.73,16.48-17.9h8.54c-11.59,33.15-29.9,37.63-40.88,37.63-11.59,0-18.92-6.71-20.14-19.32-10.17,16.68-21.56,19.32-30.1,19.32-12.2,0-21.76-7.32-21.76-24.41,0-3.86.61-8.34,1.63-13.22l13.83-65.29h29.29l-14.64,69.16c-.41,2.03-.61,3.86-.61,5.7,0,4.68,1.63,8.34,6.1,8.34,7.93,0,13.22-7.73,16.27-17.9l13.83-65.29h29.29Z"/>
        <path class="cls-1" d="M610.28,14.24l30.1-4.07-9.76,45.76c8.34-5.08,12.61-5.7,16.68-5.7,14.24,0,24,8.95,24,34.78,0,23.8-12.61,68.75-55.73,68.75-18.71,0-28.48-9.76-28.48-26.04,0-3.46.41-7.32,1.42-11.59l21.76-101.9ZM639.98,64.68c-2.85,0-9.76,1.02-12,3.66l-11.19,51.66c-.41,1.63-.61,3.26-.61,4.68,0,5.9,3.46,9.36,10.78,9.36,13.22,0,23.8-28.48,23.8-49.83,0-9.97-3.46-19.53-10.78-19.53Z"/>
      </g>
      <g>
        <path class="cls-1" d="M0,13.26h74.45v23.69H24.58v31.66h45.39v23.69H24.58v33.21h50.77v23.69H0V13.26Z"/>
        <path class="cls-1" d="M134.18,122.4c0-2.59-1.02-4.66-3.05-6.22-2.04-1.55-4.55-2.98-7.54-4.27-2.99-1.29-6.28-2.62-9.87-3.98-3.59-1.36-6.88-3.23-9.87-5.63-2.99-2.39-5.5-5.44-7.53-9.13-2.04-3.69-3.05-8.45-3.05-14.27,0-9.58,2.63-16.9,7.89-21.95,5.26-5.05,12.86-7.57,22.78-7.57,6.82,0,12.98.78,18.48,2.33,5.5,1.55,9.81,3.3,12.92,5.24l-5.2,18.26c-2.75-1.16-6.22-2.39-10.4-3.69-4.19-1.29-8.43-1.94-12.74-1.94-6.94,0-10.4,2.91-10.4,8.74,0,2.33,1.01,4.21,3.05,5.63,2.03,1.43,4.54,2.75,7.54,3.98,2.99,1.23,6.28,2.56,9.87,3.98,3.59,1.43,6.87,3.27,9.87,5.54,2.99,2.27,5.5,5.21,7.53,8.84,2.03,3.63,3.05,8.29,3.05,13.98,0,9.84-2.9,17.58-8.7,23.21-5.8,5.63-14.5,8.45-26.1,8.45-6.34,0-12.29-.87-17.85-2.62s-10.08-3.79-13.54-6.12l6.46-18.84c2.75,1.68,6.4,3.33,10.94,4.95,4.54,1.62,9.21,2.43,13.99,2.43,3.47,0,6.25-.71,8.34-2.14,2.09-1.42,3.14-3.82,3.14-7.19Z"/>
        <path class="cls-1" d="M167.37,52.1h12.38v-18.26l23.32-7.19v25.44h21.89v21.36h-21.89v37.29c0,6.73.63,11.55,1.88,14.47,1.26,2.91,3.62,4.37,7.09,4.37,2.39,0,4.45-.26,6.19-.78,1.73-.52,3.68-1.29,5.83-2.33l4.13,19.42c-3.23,1.68-7,3.11-11.3,4.27-4.31,1.17-8.67,1.75-13.1,1.75-8.25,0-14.32-2.3-18.21-6.89-3.89-4.6-5.83-12.14-5.83-22.63v-48.94h-12.38v-21.36Z"/>
        <path class="cls-1" d="M265.68,52.1v55.15c0,7.9.87,13.59,2.6,17.09,1.73,3.5,5.11,5.24,10.14,5.24,4.42,0,8.1-1.42,11.03-4.27,2.93-2.85,5.11-6.34,6.55-10.49v-62.73h23.32v67.58c0,5.31.24,10.52.72,15.63.48,5.12,1.19,9.74,2.15,13.89h-17.58l-4.13-14.37h-.72c-2.75,4.92-6.58,9-11.48,12.24-4.91,3.23-10.7,4.85-17.4,4.85-4.55,0-8.61-.65-12.2-1.94-3.59-1.29-6.58-3.43-8.97-6.41-2.39-2.98-4.22-6.99-5.47-12.04-1.26-5.05-1.88-11.39-1.88-19.03v-60.4h23.32Z"/>
      </g>
    </g>
  </g>
</svg>