<?xml version="1.0" standalone="no"?>
<!DOCTYPE svg PUBLIC "-//W3C//DTD SVG 20010904//EN"
 "http://www.w3.org/TR/2001/REC-SVG-20010904/DTD/svg10.dtd">
<svg version="1.0" xmlns="http://www.w3.org/2000/svg"
 width="2051.000000pt" height="597.000000pt" viewBox="0 0 2051.000000 597.000000"
 preserveAspectRatio="xMidYMid meet">

<g transform="translate(0.000000,597.000000) scale(0.100000,-0.100000)"
fill="#cb465a" stroke="none">
<path d="M12495 5599 c-274 -20 -458 -76 -689 -213 -216 -128 -450 -354 -608
-590 -23 -33 -44 -63 -48 -66 -9 -8 -45 -61 -68 -100 -10 -19 -42 -73 -69
-120 -52 -91 -110 -209 -186 -380 -47 -106 -126 -328 -158 -445 -6 -22 -15
-51 -19 -65 -10 -31 -44 -176 -60 -255 -7 -33 -16 -71 -20 -85 -4 -14 -13 -59
-20 -100 -6 -41 -15 -95 -20 -120 -9 -46 -23 -168 -40 -348 -21 -220 -8 -658
25 -847 3 -16 11 -57 16 -90 6 -33 14 -71 19 -85 4 -14 13 -45 20 -70 7 -25
16 -54 20 -65 4 -11 14 -36 21 -55 124 -345 428 -596 811 -671 298 -58 668
-39 958 48 325 97 686 338 901 600 32 39 59 76 59 81 0 11 23 22 45 22 9 0 10
-11 4 -45 -5 -25 -7 -58 -5 -73 2 -15 7 -49 11 -77 21 -153 132 -319 270 -400
159 -94 397 -117 605 -58 102 29 271 117 357 187 100 81 206 196 232 251 42
89 73 85 91 -12 31 -171 150 -325 310 -402 169 -82 398 -79 586 8 166 77 357
247 473 419 34 51 68 91 74 89 7 -2 15 -26 18 -53 27 -215 130 -375 293 -454
251 -122 554 -79 806 116 105 81 259 254 304 342 20 39 49 40 54 2 2 -14 13
-52 24 -85 58 -167 201 -292 433 -380 157 -59 405 -79 620 -51 384 51 691 235
942 566 74 98 190 305 234 418 5 12 13 32 18 45 4 12 16 40 25 61 18 41 75
213 94 281 10 37 18 72 42 180 46 202 76 515 67 677 -7 113 -22 249 -32 288
-3 14 -11 45 -17 70 -41 178 -121 328 -226 427 -114 108 -251 155 -452 156
-86 0 -147 -5 -195 -17 -84 -20 -212 -81 -277 -130 -44 -34 -68 -44 -68 -30 0
3 7 36 15 73 8 36 35 165 61 286 99 472 168 796 189 890 26 118 34 160 29 164
-2 3 -71 -5 -152 -18 -496 -74 -701 -107 -705 -111 -3 -3 -13 -39 -22 -80 -9
-41 -21 -93 -26 -115 -5 -22 -14 -65 -20 -95 -14 -73 -26 -126 -37 -175 -11
-45 -30 -129 -43 -192 -5 -24 -13 -63 -19 -88 -14 -62 -26 -120 -40 -185 -6
-30 -15 -73 -20 -95 -4 -22 -13 -67 -20 -100 -22 -114 -30 -150 -40 -195 -14
-56 -27 -117 -39 -172 -5 -24 -14 -68 -21 -98 -12 -54 -17 -77 -40 -195 -7
-33 -16 -78 -20 -100 -5 -22 -14 -62 -20 -90 -5 -27 -15 -70 -20 -95 -15 -62
-28 -125 -40 -190 -9 -51 -17 -87 -41 -195 -5 -22 -14 -65 -20 -95 -6 -30 -15
-73 -19 -95 -4 -22 -13 -65 -19 -95 -6 -30 -16 -75 -22 -100 -5 -25 -14 -63
-19 -85 -22 -99 -29 -125 -54 -200 -30 -92 -134 -303 -174 -355 -98 -126 -194
-184 -307 -185 -112 0 -164 46 -186 167 -13 72 1 188 52 426 22 104 28 130 38
182 6 30 15 73 20 95 41 187 71 327 81 380 4 22 18 87 30 145 12 58 26 123 30
145 4 22 15 76 24 120 9 44 21 105 27 135 12 63 25 121 39 183 9 38 30 139 51
242 4 22 17 83 29 135 11 52 23 112 27 133 l6 37 -419 -2 -418 -3 -8 -30 c-4
-16 -19 -91 -34 -165 -14 -74 -30 -151 -34 -170 -19 -86 -33 -148 -40 -185 -7
-36 -18 -86 -40 -185 -4 -19 -15 -71 -24 -115 -9 -44 -24 -108 -32 -143 -8
-35 -19 -87 -25 -115 -5 -29 -13 -70 -18 -92 -5 -22 -19 -87 -31 -145 -12 -58
-30 -143 -40 -190 -10 -47 -30 -143 -44 -215 -34 -169 -42 -202 -78 -310 -54
-159 -132 -288 -231 -382 -119 -113 -279 -108 -345 9 -37 65 -38 232 -3 383
10 45 28 128 43 195 5 25 12 65 15 90 3 25 9 49 14 55 5 5 9 21 9 36 0 14 4
39 9 55 5 16 14 56 21 89 6 33 15 78 20 100 5 22 14 67 20 100 6 33 15 76 20
95 5 19 14 58 20 85 6 28 15 66 20 85 5 19 14 62 20 95 6 33 15 76 20 95 5 19
14 62 20 95 6 33 15 76 20 95 5 19 14 62 20 95 6 33 15 76 20 95 5 19 14 62
20 95 7 33 16 74 20 90 4 17 13 57 20 90 7 33 16 74 20 90 5 17 12 54 15 83
l7 52 -415 0 -414 0 -6 -27 c-6 -25 -46 -208 -161 -733 -20 -91 -41 -183 -46
-205 -12 -54 -23 -103 -75 -350 -113 -539 -137 -628 -203 -770 -76 -164 -123
-238 -206 -321 -94 -94 -145 -117 -262 -118 -59 -1 -76 3 -107 24 -39 27 -68
77 -88 154 -10 38 -10 68 0 145 6 53 16 112 21 131 5 19 17 73 26 120 9 47 20
103 25 125 5 22 14 65 20 95 11 58 22 110 39 188 6 26 13 61 16 77 3 17 9 39
14 50 5 11 11 36 14 55 2 19 9 53 14 75 5 22 24 108 42 190 17 83 36 169 41
193 5 23 13 61 18 85 5 23 14 67 21 97 7 30 16 74 21 98 5 23 13 61 18 85 5
23 14 67 21 97 17 74 27 125 39 185 5 28 15 73 21 100 6 28 15 69 21 93 9 44
23 103 38 175 6 23 14 60 19 82 6 22 15 65 22 95 7 30 16 73 21 95 5 22 14 63
19 90 10 55 23 116 40 185 5 25 15 68 20 95 6 28 15 70 21 95 5 25 14 65 19
90 17 86 30 145 41 190 6 25 13 65 16 89 l5 44 -43 -6 c-24 -4 -105 -16 -179
-27 -74 -11 -243 -37 -375 -56 -132 -19 -245 -36 -250 -38 -6 -2 -25 -68 -43
-147 -18 -79 -37 -160 -42 -179 -5 -19 -14 -60 -21 -90 -6 -30 -15 -74 -20
-97 -8 -40 -13 -60 -38 -175 -6 -24 -19 -81 -29 -128 -11 -47 -25 -110 -31
-140 -7 -30 -17 -75 -22 -100 -10 -45 -22 -99 -34 -155 -4 -16 -11 -52 -16
-80 -15 -83 -46 -226 -63 -288 -9 -32 -16 -69 -16 -82 0 -13 -4 -34 -9 -47 -5
-13 -14 -50 -21 -83 -24 -122 -33 -162 -50 -240 -10 -44 -23 -107 -30 -140 -6
-33 -16 -76 -21 -95 -8 -32 -31 -140 -49 -235 -18 -93 -32 -163 -41 -202 -5
-24 -13 -62 -18 -85 -5 -24 -14 -68 -20 -98 -6 -30 -15 -77 -21 -104 -17 -83
-149 -269 -289 -406 -211 -208 -386 -307 -672 -382 -119 -31 -132 -33 -319
-33 -216 0 -270 9 -386 66 -160 79 -298 268 -355 487 -75 287 -64 789 27 1247
97 494 236 917 429 1310 189 383 412 660 608 754 151 73 273 80 392 22 164
-81 234 -261 190 -486 -36 -184 -89 -290 -207 -409 -32 -33 -58 -63 -58 -68 0
-14 99 -86 156 -113 162 -77 327 -47 459 83 53 52 106 139 127 207 71 237 40
542 -78 753 -60 107 -226 241 -368 297 -103 40 -245 73 -349 80 -51 3 -105 7
-122 9 -16 2 -84 -1 -150 -5z m7002 -2004 c121 -55 185 -175 224 -427 18 -115
0 -452 -31 -600 -34 -161 -70 -307 -98 -393 -34 -106 -109 -264 -164 -347 -21
-31 -38 -59 -38 -62 0 -10 -33 -49 -102 -118 -107 -109 -229 -152 -369 -131
-132 21 -206 96 -230 230 -13 75 -4 138 74 523 20 96 50 239 66 317 16 79 32
155 34 170 3 16 21 98 41 183 19 85 47 214 61 285 39 196 55 258 73 279 36 40
156 94 257 116 58 12 142 2 202 -25z"/>
<path d="M0 3206 l0 -2125 93 -3 c50 -2 634 -3 1297 -3 l1205 0 3 337 2 338
-914 0 c-781 0 -915 2 -919 14 -3 8 -6 257 -6 554 -1 480 1 541 15 546 9 3
341 6 739 6 l723 0 5 28 c3 15 5 169 4 342 l-2 315 -740 5 -740 5 -1 528 c-1
502 -1 528 17 537 12 7 284 8 765 4 411 -3 771 -3 801 1 l53 6 0 345 0 344
-1200 0 -1200 0 0 -2124z"/>
<path d="M6499 4836 c-2 -3 -144 -48 -314 -101 -171 -53 -320 -103 -333 -111
l-23 -15 7 -197 c4 -108 4 -236 0 -284 l-8 -88 -199 0 -199 0 0 -325 0 -325
200 0 199 0 5 -857 c4 -898 5 -918 51 -1093 23 -88 87 -202 145 -260 117 -116
268 -169 500 -175 195 -4 332 8 471 43 120 31 289 104 289 125 0 7 -7 44 -15
82 -18 83 -32 150 -46 225 -6 30 -15 75 -19 100 -5 25 -13 66 -18 93 -5 26
-12 50 -16 54 -4 4 -21 1 -39 -6 -172 -70 -314 -88 -407 -52 -82 32 -118 69
-155 161 -43 108 -45 152 -45 873 l0 687 334 0 c258 0 335 3 338 13 4 9 2 367
-2 620 0 16 -23 17 -335 17 l-335 0 0 400 c0 327 -2 400 -13 400 -8 0 -16 -2
-18 -4z"/>
<path d="M4038 4109 c-220 -23 -461 -119 -590 -234 -110 -99 -204 -249 -256
-412 -33 -99 -47 -274 -33 -385 12 -89 45 -222 60 -243 4 -5 14 -26 21 -45 38
-98 161 -237 274 -312 79 -51 211 -114 361 -171 300 -115 382 -157 453 -237
59 -67 81 -192 47 -273 -55 -132 -215 -197 -450 -183 -185 10 -325 51 -568
164 -53 25 -100 42 -103 39 -9 -9 -194 -552 -194 -569 0 -13 161 -89 272 -129
116 -41 257 -79 378 -101 118 -21 542 -18 649 5 264 57 457 159 578 307 136
166 214 435 199 687 -17 298 -158 529 -410 677 -106 63 -150 83 -384 177 -350
140 -409 182 -452 323 -18 57 3 135 51 190 52 59 151 106 251 119 164 22 399
-26 602 -124 59 -28 82 -35 88 -26 8 12 31 86 87 272 52 177 74 263 69 277
-14 35 -287 146 -448 182 -145 32 -381 43 -552 25z"/>
<path d="M7723 2968 c3 -944 6 -1086 21 -1178 59 -374 170 -569 397 -697 129
-74 199 -87 449 -87 187 1 225 4 293 22 95 26 220 88 301 149 73 55 186 168
212 212 10 17 22 31 26 31 4 0 8 7 8 15 0 8 5 15 10 15 6 0 10 6 10 13 0 8 9
22 21 33 20 18 21 18 35 -1 8 -10 14 -25 14 -33 0 -8 27 -96 61 -197 51 -153
64 -184 82 -189 12 -3 126 -5 252 -3 l230 2 4 25 c2 14 -2 63 -8 110 -14 99
-26 192 -40 310 -7 52 -13 547 -15 1293 -3 664 -8 1212 -11 1217 -4 6 -138 10
-351 10 l-344 0 0 -957 c-1 -1091 7 -995 -92 -1144 -67 -100 -122 -155 -202
-203 -133 -80 -280 -101 -401 -57 -73 26 -119 62 -168 131 -35 51 -44 71 -70
165 -7 27 -13 358 -16 1050 l-6 1010 -353 3 -353 2 4 -1072z"/>
</g>
</svg>
